<mxfile host="Electron" agent="Mozilla/5.0 (X11; Linux x86_64) AppleWebKit/537.36 (KHTML, like Gecko) draw.io/25.0.1 Chrome/128.0.6613.186 Electron/32.2.6 Safari/537.36" version="25.0.1">
  <diagram name="Page-1" id="h8Pk-Ec_L9b_7ux0lojJ">
    <mxGraphModel dx="948" dy="660" grid="1" gridSize="10" guides="1" tooltips="1" connect="1" arrows="1" fold="1" page="1" pageScale="1" pageWidth="827" pageHeight="1169" background="#ffffff" math="0" shadow="0">
      <root>
        <mxCell id="0" />
        <mxCell id="1" parent="0" />
        <mxCell id="JMQ2rB71Vb1QW5Y3Cyl6-1" value="" style="dashed=0;outlineConnect=0;html=1;align=center;labelPosition=center;verticalLabelPosition=bottom;verticalAlign=top;shape=mxgraph.webicons.chrome;gradientColor=#DFDEDE;labelBackgroundColor=none;fontColor=#000000;" parent="1" vertex="1">
          <mxGeometry x="129.65" y="200" width="103.2" height="104" as="geometry" />
        </mxCell>
        <mxCell id="JMQ2rB71Vb1QW5Y3Cyl6-2" value="Serveur et BDD" style="image;aspect=fixed;perimeter=ellipsePerimeter;html=1;align=center;shadow=0;dashed=0;spacingTop=3;image=img/lib/active_directory/database_server.svg;labelBackgroundColor=none;fontColor=#000000;" parent="1" vertex="1">
          <mxGeometry x="517.5" y="182" width="114.8" height="140" as="geometry" />
        </mxCell>
        <mxCell id="JMQ2rB71Vb1QW5Y3Cyl6-3" value="HTML" style="verticalLabelPosition=bottom;html=1;verticalAlign=top;align=center;strokeColor=none;fillColor=#00BEF2;shape=mxgraph.azure.script_file;pointerEvents=1;labelBackgroundColor=none;fontColor=#000000;" parent="1" vertex="1">
          <mxGeometry x="128.75" y="120" width="47.5" height="50" as="geometry" />
        </mxCell>
        <mxCell id="JMQ2rB71Vb1QW5Y3Cyl6-4" value="CSS" style="verticalLabelPosition=bottom;html=1;verticalAlign=top;align=center;strokeColor=none;fillColor=#00BEF2;shape=mxgraph.azure.script_file;pointerEvents=1;labelBackgroundColor=none;fontColor=#000000;" parent="1" vertex="1">
          <mxGeometry x="186.25" y="120" width="47.5" height="50" as="geometry" />
        </mxCell>
        <mxCell id="JMQ2rB71Vb1QW5Y3Cyl6-10" value="HTML ou l&lt;span style=&quot;background-color: initial;&quot;&gt;angage Backend&lt;/span&gt;&lt;div&gt;&lt;div&gt;JS, Python, PHP, Java, ...&lt;/div&gt;&lt;/div&gt;" style="verticalLabelPosition=bottom;html=1;verticalAlign=top;align=center;strokeColor=none;fillColor=#00BEF2;shape=mxgraph.azure.script_file;pointerEvents=1;labelBackgroundColor=none;fontColor=#000000;" parent="1" vertex="1">
          <mxGeometry x="551.15" y="90" width="47.5" height="50" as="geometry" />
        </mxCell>
        <mxCell id="JMQ2rB71Vb1QW5Y3Cyl6-13" value="GET &amp;lt;URL&amp;gt;" style="endArrow=classic;startArrow=none;html=1;rounded=0;labelBackgroundColor=none;fontColor=#000000;strokeColor=#000000;endFill=1;startFill=0;verticalAlign=bottom;" parent="1" edge="1">
          <mxGeometry x="0.0057" width="50" height="50" relative="1" as="geometry">
            <mxPoint x="250" y="236" as="sourcePoint" />
            <mxPoint x="500" y="236" as="targetPoint" />
            <mxPoint as="offset" />
          </mxGeometry>
        </mxCell>
        <mxCell id="kuHtYikfCket1dbk7mqV-1" value="" style="endArrow=none;startArrow=classic;html=1;rounded=0;labelBackgroundColor=none;fontColor=#000000;strokeColor=#000000;endFill=0;startFill=1;" edge="1" parent="1">
          <mxGeometry x="0.0057" width="50" height="50" relative="1" as="geometry">
            <mxPoint x="250" y="266" as="sourcePoint" />
            <mxPoint x="500" y="266" as="targetPoint" />
            <mxPoint as="offset" />
          </mxGeometry>
        </mxCell>
        <mxCell id="kuHtYikfCket1dbk7mqV-2" value="HTML, CSS" style="edgeLabel;html=1;align=center;verticalAlign=middle;resizable=0;points=[];labelBackgroundColor=none;fontColor=#000000;" vertex="1" connectable="0" parent="kuHtYikfCket1dbk7mqV-1">
          <mxGeometry x="0.072" y="7" relative="1" as="geometry">
            <mxPoint as="offset" />
          </mxGeometry>
        </mxCell>
      </root>
    </mxGraphModel>
  </diagram>
</mxfile>
